<svg width="71" height="64" viewBox="0 0 71 64" fill="none" xmlns="http://www.w3.org/2000/svg">
<path d="M7.16667 7.16666H17.7917L24.875 0.0833282H46.125L53.2083 7.16666H63.8333C65.712 7.16666 67.5136 7.91294 68.842 9.24132C70.1704 10.5697 70.9167 12.3714 70.9167 14.25V56.75C70.9167 58.6286 70.1704 60.4303 68.842 61.7587C67.5136 63.0871 65.712 63.8333 63.8333 63.8333H7.16667C5.28805 63.8333 3.48638 63.0871 2.15799 61.7587C0.829611 60.4303 0.083334 58.6286 0.083334 56.75V14.25C0.083334 12.3714 0.829611 10.5697 2.15799 9.24132C3.48638 7.91294 5.28805 7.16666 7.16667 7.16666ZM35.5 17.7917C30.8035 17.7917 26.2993 19.6574 22.9783 22.9783C19.6574 26.2993 17.7917 30.8035 17.7917 35.5C17.7917 40.1965 19.6574 44.7007 22.9783 48.0217C26.2993 51.3426 30.8035 53.2083 35.5 53.2083C40.1965 53.2083 44.7007 51.3426 48.0217 48.0217C51.3426 44.7007 53.2083 40.1965 53.2083 35.5C53.2083 30.8035 51.3426 26.2993 48.0217 22.9783C44.7007 19.6574 40.1965 17.7917 35.5 17.7917ZM35.5 24.875C38.3179 24.875 41.0204 25.9944 43.013 27.987C45.0056 29.9796 46.125 32.6821 46.125 35.5C46.125 38.3179 45.0056 41.0204 43.013 43.013C41.0204 45.0056 38.3179 46.125 35.5 46.125C32.6821 46.125 29.9796 45.0056 27.987 43.013C25.9944 41.0204 24.875 38.3179 24.875 35.5C24.875 32.6821 25.9944 29.9796 27.987 27.987C29.9796 25.9944 32.6821 24.875 35.5 24.875Z" fill="#6F8F72"/>
</svg>
