<svg width="44" height="44" viewBox="0 0 44 44" fill="none" xmlns="http://www.w3.org/2000/svg">
<path d="M43.4297 22.7128L23.6319 0.696805C22.7982 -0.232268 21.1968 -0.232268 20.3631 0.696805L0.565301 22.7128C0.280337 23.0289 0.0932882 23.4211 0.0268987 23.8417C-0.0394908 24.2622 0.0176393 24.693 0.191343 25.0817C0.543303 25.8765 1.33082 26.3872 2.19972 26.3872H6.59923V41.7984C6.59923 42.3823 6.83099 42.9423 7.24352 43.3552C7.65605 43.768 8.21557 44 8.79898 44H15.3982C15.9817 44 16.5412 43.768 16.9537 43.3552C17.3662 42.9423 17.598 42.3823 17.598 41.7984V32.992H26.397V41.7984C26.397 42.3823 26.6288 42.9423 27.0413 43.3552C27.4538 43.768 28.0134 44 28.5968 44H35.196C35.7794 44 36.339 43.768 36.7515 43.3552C37.164 42.9423 37.3958 42.3823 37.3958 41.7984V26.3872H41.7953C42.2213 26.389 42.6387 26.2668 42.9964 26.0353C43.3542 25.8038 43.637 25.4732 43.8102 25.0836C43.9835 24.6941 44.0398 24.2626 43.9722 23.8416C43.9046 23.4206 43.7162 23.0284 43.4297 22.7128V22.7128Z" fill="#6F8F72"/>
</svg>
