<svg width="35" height="37" viewBox="0 0 35 37" fill="none" xmlns="http://www.w3.org/2000/svg">
<path d="M13.1479 0.209244C16.4893 0.209244 19.6938 1.6434 22.0566 4.19623C24.4193 6.74905 25.7467 10.2114 25.7467 13.8217C25.7467 17.1934 24.6031 20.2928 22.723 22.6802L23.2463 23.2456H24.7775L34.4688 33.7167L31.5614 36.8581L21.8701 26.387V24.7325L21.3468 24.1671C19.0607 26.2755 16.1536 27.4339 13.1479 27.4341C9.80653 27.4341 6.602 25.9999 4.23928 23.4471C1.87656 20.8943 0.549194 17.4319 0.549194 13.8217C0.549194 10.2114 1.87656 6.74905 4.23928 4.19623C6.602 1.6434 9.80653 0.209244 13.1479 0.209244ZM13.1479 4.39768C8.30226 4.39768 4.42573 8.58612 4.42573 13.8217C4.42573 19.0572 8.30226 23.2456 13.1479 23.2456C17.9936 23.2456 21.8701 19.0572 21.8701 13.8217C21.8701 8.58612 17.9936 4.39768 13.1479 4.39768Z" fill="#6F8F72"/>
</svg>
